<svg id="visual" viewBox="0 0 960 100" width="960" height="100" xmlns="http://www.w3.org/2000/svg" xmlns:xlink="http://www.w3.org/1999/xlink" version="1.1"><rect x="0" y="0" width="960" height="100" fill="#001220"></rect><path d="M0 11L7 18.7C14 26.3 28 41.7 41.8 47.3C55.7 53 69.3 49 83.2 43.3C97 37.7 111 30.3 125 26.2C139 22 153 21 167 22.2C181 23.3 195 26.7 208.8 27.2C222.7 27.7 236.3 25.3 250.2 28.5C264 31.7 278 40.3 292 40.5C306 40.7 320 32.3 334 26.2C348 20 362 16 375.8 16C389.7 16 403.3 20 417.2 27.8C431 35.7 445 47.3 459 45.2C473 43 487 27 501 25.7C515 24.3 529 37.7 542.8 39.5C556.7 41.3 570.3 31.7 584.2 29.3C598 27 612 32 626 36.5C640 41 654 45 668 47.3C682 49.7 696 50.3 709.8 47.2C723.7 44 737.3 37 751.2 33.2C765 29.3 779 28.7 793 29.7C807 30.7 821 33.3 835 31.8C849 30.3 863 24.7 876.8 25.3C890.7 26 904.3 33 918.2 33.8C932 34.7 946 29.3 953 26.7L960 24L960 101L953 101C946 101 932 101 918.2 101C904.3 101 890.7 101 876.8 101C863 101 849 101 835 101C821 101 807 101 793 101C779 101 765 101 751.2 101C737.3 101 723.7 101 709.8 101C696 101 682 101 668 101C654 101 640 101 626 101C612 101 598 101 584.2 101C570.3 101 556.7 101 542.8 101C529 101 515 101 501 101C487 101 473 101 459 101C445 101 431 101 417.2 101C403.3 101 389.7 101 375.8 101C362 101 348 101 334 101C320 101 306 101 292 101C278 101 264 101 250.2 101C236.3 101 222.7 101 208.8 101C195 101 181 101 167 101C153 101 139 101 125 101C111 101 97 101 83.2 101C69.3 101 55.7 101 41.8 101C28 101 14 101 7 101L0 101Z" fill="#c62368"></path><path d="M0 39L7 38.3C14 37.7 28 36.3 41.8 36.3C55.7 36.3 69.3 37.7 83.2 40.3C97 43 111 47 125 47C139 47 153 43 167 44.7C181 46.3 195 53.7 208.8 54.8C222.7 56 236.3 51 250.2 53.5C264 56 278 66 292 71C306 76 320 76 334 69.2C348 62.3 362 48.7 375.8 41.7C389.7 34.7 403.3 34.3 417.2 38.2C431 42 445 50 459 53C473 56 487 54 501 54.8C515 55.7 529 59.3 542.8 56.7C556.7 54 570.3 45 584.2 43.2C598 41.3 612 46.7 626 52.8C640 59 654 66 668 69.8C682 73.7 696 74.3 709.8 73.8C723.7 73.3 737.3 71.7 751.2 66.7C765 61.7 779 53.3 793 54.3C807 55.3 821 65.7 835 69.7C849 73.7 863 71.3 876.8 67.7C890.7 64 904.3 59 918.2 56.8C932 54.7 946 55.3 953 55.7L960 56L960 101L953 101C946 101 932 101 918.2 101C904.3 101 890.7 101 876.8 101C863 101 849 101 835 101C821 101 807 101 793 101C779 101 765 101 751.2 101C737.3 101 723.7 101 709.8 101C696 101 682 101 668 101C654 101 640 101 626 101C612 101 598 101 584.2 101C570.3 101 556.7 101 542.8 101C529 101 515 101 501 101C487 101 473 101 459 101C445 101 431 101 417.2 101C403.3 101 389.7 101 375.8 101C362 101 348 101 334 101C320 101 306 101 292 101C278 101 264 101 250.2 101C236.3 101 222.7 101 208.8 101C195 101 181 101 167 101C153 101 139 101 125 101C111 101 97 101 83.2 101C69.3 101 55.7 101 41.8 101C28 101 14 101 7 101L0 101Z" fill="#e34c67"></path><path d="M0 64L7 63.5C14 63 28 62 41.8 61.5C55.7 61 69.3 61 83.2 61C97 61 111 61 125 65.7C139 70.3 153 79.7 167 81C181 82.3 195 75.7 208.8 71.5C222.7 67.3 236.3 65.7 250.2 64C264 62.3 278 60.7 292 61.5C306 62.3 320 65.7 334 67.5C348 69.3 362 69.7 375.8 69.8C389.7 70 403.3 70 417.2 67.8C431 65.7 445 61.3 459 60C473 58.7 487 60.3 501 60.5C515 60.7 529 59.3 542.8 63.2C556.7 67 570.3 76 584.2 77.5C598 79 612 73 626 69.3C640 65.7 654 64.3 668 67.8C682 71.3 696 79.7 709.8 82.5C723.7 85.3 737.3 82.7 751.2 82.3C765 82 779 84 793 85.3C807 86.7 821 87.3 835 84C849 80.7 863 73.3 876.8 73.7C890.7 74 904.3 82 918.2 83.8C932 85.7 946 81.3 953 79.2L960 77L960 101L953 101C946 101 932 101 918.2 101C904.3 101 890.7 101 876.8 101C863 101 849 101 835 101C821 101 807 101 793 101C779 101 765 101 751.2 101C737.3 101 723.7 101 709.8 101C696 101 682 101 668 101C654 101 640 101 626 101C612 101 598 101 584.2 101C570.3 101 556.7 101 542.8 101C529 101 515 101 501 101C487 101 473 101 459 101C445 101 431 101 417.2 101C403.3 101 389.7 101 375.8 101C362 101 348 101 334 101C320 101 306 101 292 101C278 101 264 101 250.2 101C236.3 101 222.7 101 208.8 101C195 101 181 101 167 101C153 101 139 101 125 101C111 101 97 101 83.2 101C69.3 101 55.7 101 41.8 101C28 101 14 101 7 101L0 101Z" fill="#fa7268"></path></svg>