<svg id="visual" viewBox="0 0 960 100" width="960" height="100" xmlns="http://www.w3.org/2000/svg" xmlns:xlink="http://www.w3.org/1999/xlink" version="1.1"><rect x="0" y="0" width="960" height="100" fill="#001220"></rect><path d="M0 87L7 79.3C14 71.7 28 56.3 41.8 50.7C55.7 45 69.3 49 83.2 54.7C97 60.3 111 67.7 125 71.8C139 76 153 77 167 75.8C181 74.7 195 71.3 208.8 70.8C222.7 70.3 236.3 72.7 250.2 69.5C264 66.3 278 57.7 292 57.5C306 57.3 320 65.7 334 71.8C348 78 362 82 375.8 82C389.7 82 403.3 78 417.2 70.2C431 62.3 445 50.7 459 52.8C473 55 487 71 501 72.3C515 73.7 529 60.3 542.8 58.5C556.7 56.7 570.3 66.3 584.2 68.7C598 71 612 66 626 61.5C640 57 654 53 668 50.7C682 48.3 696 47.7 709.8 50.8C723.7 54 737.3 61 751.2 64.8C765 68.7 779 69.3 793 68.3C807 67.3 821 64.7 835 66.2C849 67.7 863 73.3 876.8 72.7C890.7 72 904.3 65 918.2 64.2C932 63.3 946 68.7 953 71.3L960 74L960 0L953 0C946 0 932 0 918.2 0C904.3 0 890.7 0 876.8 0C863 0 849 0 835 0C821 0 807 0 793 0C779 0 765 0 751.2 0C737.3 0 723.7 0 709.8 0C696 0 682 0 668 0C654 0 640 0 626 0C612 0 598 0 584.2 0C570.3 0 556.7 0 542.8 0C529 0 515 0 501 0C487 0 473 0 459 0C445 0 431 0 417.2 0C403.3 0 389.7 0 375.8 0C362 0 348 0 334 0C320 0 306 0 292 0C278 0 264 0 250.2 0C236.3 0 222.7 0 208.8 0C195 0 181 0 167 0C153 0 139 0 125 0C111 0 97 0 83.2 0C69.3 0 55.7 0 41.8 0C28 0 14 0 7 0L0 0Z" fill="#c62368"></path><path d="M0 59L7 59.7C14 60.3 28 61.7 41.8 61.7C55.7 61.7 69.3 60.3 83.2 57.7C97 55 111 51 125 51C139 51 153 55 167 53.3C181 51.7 195 44.3 208.8 43.2C222.7 42 236.3 47 250.2 44.5C264 42 278 32 292 27C306 22 320 22 334 28.8C348 35.7 362 49.3 375.8 56.3C389.7 63.3 403.3 63.7 417.2 59.8C431 56 445 48 459 45C473 42 487 44 501 43.2C515 42.3 529 38.7 542.8 41.3C556.7 44 570.3 53 584.2 54.8C598 56.7 612 51.3 626 45.2C640 39 654 32 668 28.2C682 24.3 696 23.7 709.8 24.2C723.7 24.7 737.3 26.3 751.2 31.3C765 36.3 779 44.7 793 43.7C807 42.7 821 32.3 835 28.3C849 24.3 863 26.7 876.8 30.3C890.7 34 904.3 39 918.2 41.2C932 43.3 946 42.7 953 42.3L960 42L960 0L953 0C946 0 932 0 918.2 0C904.3 0 890.7 0 876.8 0C863 0 849 0 835 0C821 0 807 0 793 0C779 0 765 0 751.2 0C737.3 0 723.7 0 709.8 0C696 0 682 0 668 0C654 0 640 0 626 0C612 0 598 0 584.2 0C570.3 0 556.7 0 542.8 0C529 0 515 0 501 0C487 0 473 0 459 0C445 0 431 0 417.2 0C403.3 0 389.7 0 375.8 0C362 0 348 0 334 0C320 0 306 0 292 0C278 0 264 0 250.2 0C236.3 0 222.7 0 208.8 0C195 0 181 0 167 0C153 0 139 0 125 0C111 0 97 0 83.2 0C69.3 0 55.7 0 41.8 0C28 0 14 0 7 0L0 0Z" fill="#e34c67"></path><path d="M0 34L7 34.5C14 35 28 36 41.8 36.5C55.7 37 69.3 37 83.2 37C97 37 111 37 125 32.3C139 27.7 153 18.3 167 17C181 15.7 195 22.3 208.8 26.5C222.7 30.7 236.3 32.3 250.2 34C264 35.7 278 37.3 292 36.5C306 35.7 320 32.3 334 30.5C348 28.7 362 28.3 375.8 28.2C389.7 28 403.3 28 417.2 30.2C431 32.3 445 36.7 459 38C473 39.3 487 37.7 501 37.5C515 37.3 529 38.7 542.8 34.8C556.7 31 570.3 22 584.2 20.5C598 19 612 25 626 28.7C640 32.3 654 33.7 668 30.2C682 26.7 696 18.3 709.8 15.5C723.7 12.7 737.3 15.3 751.2 15.7C765 16 779 14 793 12.7C807 11.3 821 10.7 835 14C849 17.3 863 24.7 876.8 24.3C890.7 24 904.3 16 918.2 14.2C932 12.3 946 16.7 953 18.8L960 21L960 0L953 0C946 0 932 0 918.2 0C904.3 0 890.7 0 876.8 0C863 0 849 0 835 0C821 0 807 0 793 0C779 0 765 0 751.2 0C737.3 0 723.7 0 709.8 0C696 0 682 0 668 0C654 0 640 0 626 0C612 0 598 0 584.2 0C570.3 0 556.7 0 542.8 0C529 0 515 0 501 0C487 0 473 0 459 0C445 0 431 0 417.2 0C403.3 0 389.7 0 375.8 0C362 0 348 0 334 0C320 0 306 0 292 0C278 0 264 0 250.2 0C236.3 0 222.7 0 208.8 0C195 0 181 0 167 0C153 0 139 0 125 0C111 0 97 0 83.2 0C69.3 0 55.7 0 41.8 0C28 0 14 0 7 0L0 0Z" fill="#fa7268"></path></svg>